<svg width="1440" height="44" viewBox="0 0 1440 44" fill="none" xmlns="http://www.w3.org/2000/svg">
<g clip-path="url(#clip0_1_18)">
<path d="M1444.99 6.39472H-3.45323V43.1653H1444.99V6.39472Z" fill="#413732"/>
<path d="M1443.39 0H-3.45323V15.9872H1443.39V0Z" fill="white"/>
<path d="M1443.39 6.39472H1403.42V17.5858H1443.39V6.39472Z" fill="#413732"/>
<path d="M1426 11H1375V22H1426V11Z" fill="#413732"/>
<path d="M1.34302 15.9873L49.3046 19.5046C97.2663 22.8618 193.19 29.8962 289.114 30.6955C385.036 31.4949 480.96 26.0593 576.882 23.5014C672.806 20.7835 768.729 20.7835 864.653 24.4605C960.575 28.2974 1056.5 35.6516 1152.42 33.0936C1248.35 30.3759 1344.27 17.586 1392.23 11.1911L1440.19 4.79625" fill="white"/>
<path d="M1.34302 15.9873L49.3046 19.5046C97.2663 22.8618 193.19 29.8962 289.114 30.6955C385.036 31.4949 480.96 26.0593 576.882 23.5014C672.806 20.7835 768.729 20.7835 864.653 24.4605C960.575 28.2974 1056.5 35.6516 1152.42 33.0936C1248.35 30.3759 1344.27 17.586 1392.23 11.1911L1440.19 4.79625" stroke="url(#paint0_linear_1_18)" stroke-width="5" stroke-linecap="round"/>
</g>
<defs>
<linearGradient id="paint0_linear_1_18" x1="827.883" y1="33.5732" x2="953.382" y2="33.5732" gradientUnits="userSpaceOnUse">
<stop stop-color="#FFE6C9"/>
<stop offset="1" stop-color="#FF9F6D"/>
</linearGradient>
<clipPath id="clip0_1_18">
<rect width="1440" height="43.1655" fill="white"/>
</clipPath>
</defs>
</svg>
