<svg id="nav_symptom1" xmlns="http://www.w3.org/2000/svg" width="54.307" height="56.718" viewBox="0 0 54.307 56.718">
  <path id="パス_24" data-name="パス 24" fill="currentColor" d="M3887.975,1700.526h0l-9.694-12.861,0-.006,0-.006a5.618,5.618,0,0,0-9.436-.611,9.666,9.666,0,0,0-13.739,0,5.625,5.625,0,0,0-1.855-1.612,5.687,5.687,0,0,0-7.657,2.222l0,.007,0,.007-9.655,12.861h0a9.186,9.186,0,0,0,.193,9.153,9.345,9.345,0,0,0,7.972,4.581h5.561l0,0v13.195a1.342,1.342,0,1,0,2.685,0v-13.205h0a2.681,2.681,0,0,0-2.678-2.678h-5.572a6.648,6.648,0,0,1-5.665-3.27,6.525,6.525,0,0,1-.139-6.5h0l9.65-12.85a2.993,2.993,0,0,1,4.029-1.163,2.959,2.959,0,0,1,1.2,3.968l-9.275,12.083a1.313,1.313,0,0,0-.061.127l-.006.015c-.014.035-.028.071-.039.108-.007.022-.011.044-.017.066s-.011.04-.015.06c-.008.041-.014.081-.018.122,0,0,0,.005,0,.008a1.351,1.351,0,0,0,0,.27c0,.02.006.039.008.058s.006.046.011.07.013.055.021.083.007.028.011.043.019.055.029.082l.014.041c.01.025.022.048.033.072s.014.032.023.047.022.039.034.058.022.038.034.056.021.029.031.043.03.042.047.063l.029.033c.019.022.038.043.058.064l.033.031c.02.019.04.038.062.057s.038.029.057.043l.046.034a1.34,1.34,0,0,0,.13.078c.028.014.056.028.084.04l.035.015c.034.014.068.027.1.038l.015,0c.035.011.07.02.105.027l.019,0c.04.008.081.014.121.019h.012c.043,0,.086.007.129.007h33.749c.043,0,.086,0,.129-.007h.012c.041,0,.081-.011.122-.019l.019,0c.035-.008.071-.016.106-.027l.015,0c.035-.011.069-.024.1-.038l.034-.015c.029-.013.058-.026.086-.041a1.35,1.35,0,0,0,.128-.077c.017-.011.032-.024.048-.036s.037-.027.055-.041.043-.038.064-.058l.031-.029c.021-.021.04-.043.059-.065l.028-.032c.017-.021.032-.042.048-.064s.021-.028.03-.042.023-.038.035-.057.022-.037.033-.057.015-.032.023-.048.023-.047.033-.072.01-.027.015-.041.02-.054.029-.082.007-.029.011-.043.015-.054.02-.082.007-.047.011-.071.007-.037.009-.057a1.333,1.333,0,0,0,0-.27.12.12,0,0,0,0-.013c0-.039-.01-.078-.018-.117,0-.021-.01-.041-.015-.062s-.01-.043-.017-.065c-.011-.037-.025-.073-.039-.108l-.006-.016a1.309,1.309,0,0,0-.061-.127l-8.444-10.566a1.317,1.317,0,0,0-.149-.276l-.673-1.24a2.967,2.967,0,0,1,1.242-3.969,2.906,2.906,0,0,1,3.953,1.164l9.688,12.851h0a6.525,6.525,0,0,1-.139,6.5,6.681,6.681,0,0,1-5.7,3.269h-5.534a2.681,2.681,0,0,0-2.678,2.678v13.205a1.342,1.342,0,1,0,2.685,0v-13.195l0,0h5.523a9.378,9.378,0,0,0,8.01-4.581A9.188,9.188,0,0,0,3887.975,1700.526Zm-26.007-13.665a7.032,7.032,0,0,1,5.774,3.046,5.53,5.53,0,0,0,.615,3.109l0,.008,0,0,.595,1.1a7,7,0,0,1-13.984-.066l.559-1.03,0-.005,0-.008a5.6,5.6,0,0,0,.636-3.082A7.032,7.032,0,0,1,3861.969,1686.862Zm8.9,10.79,4.306,2.939,1.385,2.554h-29.235l5.719-5.534a9.675,9.675,0,0,0,17.824.042Z" transform="translate(-3834.796 -1672.087)"/>
  <path id="パス_25" data-name="パス 25" fill="currentColor" d="M4160.431,1540.339a1.105,1.105,0,0,0,1.106-1.105v-2.456l.244.076.02.005.013,0,.027.007.036.009a1.84,1.84,0,0,0,.431.052,2.06,2.06,0,0,0,1.243-.43,1.879,1.879,0,0,0,.733-1.537s0,0,0,0v-2.786a1.105,1.105,0,1,0-2.21,0v2.456l-.245-.076-.016,0-.017-.005a1.925,1.925,0,0,0-1.7.325,1.988,1.988,0,0,0-.771,1.574s0,0,0,.006v2.786A1.106,1.106,0,0,0,4160.431,1540.339Z" transform="translate(-4133.699 -1531.068)"/>
  <path id="パス_26" data-name="パス 26" fill="currentColor" d="M4042.1,1563.8l-.309.124-.007,0a1.93,1.93,0,0,0-1.174,1.228,1.986,1.986,0,0,0,.275,1.741v0l1.641,2.252a1.105,1.105,0,0,0,1.787-1.3l-1.441-1.977.309-.124.008,0a2.045,2.045,0,0,0,1.211-1.265,1.9,1.9,0,0,0-.313-1.7v0l-1.641-2.252a1.106,1.106,0,1,0-1.787,1.3Z" transform="translate(-4024.211 -1557.776)"/>
  <path id="パス_27" data-name="パス 27" fill="currentColor" d="M4265.642,1569.392a1.106,1.106,0,0,0,1.545-.242l1.641-2.252v0a2,2,0,0,0,.313-1.741,1.964,1.964,0,0,0-1.235-1.236l-.006,0-.291-.109,1.445-1.983a1.106,1.106,0,0,0-1.787-1.3l-1.642,2.252v0l0,0a1.92,1.92,0,0,0-.275,1.7,1.94,1.94,0,0,0,1.155,1.273l.009,0,.321.12-1.437,1.972A1.106,1.106,0,0,0,4265.642,1569.392Z" transform="translate(-4231.202 -1557.776)"/>
</svg>
