<svg version="1.1" id="Layer_1" xmlns="http://www.w3.org/2000/svg" xmlns:xlink="http://www.w3.org/1999/xlink" x="0px" y="0px"
	 width="100%" viewBox="0 0 67 67" enable-background="new 0 0 67 67" xml:space="preserve">
<path fill="#707070" opacity="1.000000" stroke="none" 
	d="
M68.000000,2.000000 
	C68.000000,23.926834 68.000000,45.853668 68.000000,68.000000 
	C46.312931,68.000000 24.625124,68.000000 2.468657,67.531342 
	C2.000000,45.486286 2.000000,23.909887 2.000000,2.000000 
	C24.431816,2.000000 46.215908,2.000000 68.000000,2.000000 
M64.008598,25.500496 
	C64.008598,19.080523 64.008598,12.660548 64.008598,6.397860 
	C43.909950,6.397860 24.538584,6.397860 5.265346,6.397860 
	C5.265346,26.058681 5.265346,45.311920 5.265346,64.690552 
	C24.911127,64.690552 44.281502,64.690552 64.008598,64.690552 
	C64.008598,51.750584 64.008598,39.125408 64.008598,25.500496 
z"/>
<path fill="#FFFFFF" opacity="1.000000" stroke="none" 
	d="
M68.000000,1.500000 
	C46.215908,2.000000 24.431816,2.000000 2.000000,2.000000 
	C2.000000,23.909887 2.000000,45.486286 2.000000,67.531342 
	C1.666667,66.672813 1.046738,65.346474 1.042862,64.018326 
	C0.981806,43.095989 1.000000,22.173422 1.000000,1.000000 
	C23.332706,1.000000 45.666355,1.000000 68.000000,1.500000 
z"/>
<path fill="#FBFDFD" opacity="1.000000" stroke="none" 
	d="
M64.008598,26.000366 
	C64.008598,39.125408 64.008598,51.750584 64.008598,64.690552 
	C44.281502,64.690552 24.911127,64.690552 5.265346,64.690552 
	C5.265346,45.311920 5.265346,26.058681 5.265346,6.397860 
	C24.538584,6.397860 43.909950,6.397860 64.008598,6.397860 
	C64.008598,12.660548 64.008598,19.080523 64.008598,26.000366 
M34.890320,37.390003 
	C33.152393,39.207748 31.414469,41.025494 29.140734,43.403656 
	C26.327604,40.366058 23.885632,37.398788 21.066055,34.849091 
	C19.955187,33.844547 18.001604,33.771927 16.431767,33.274940 
	C16.013145,34.961124 15.116458,36.707623 15.319299,38.315403 
	C15.498333,39.734486 16.688528,41.226280 17.809252,42.288029 
	C20.939056,45.253113 24.189297,48.106461 27.565670,50.784996 
	C28.401514,51.448097 30.501030,51.892570 30.998625,51.401958 
	C38.656258,43.851902 46.234550,36.213631 53.547096,28.332184 
	C54.362339,27.453510 53.443504,24.965929 53.328861,23.224487 
	C51.760693,23.411554 49.671734,23.020351 48.712841,23.883938 
	C44.107132,28.031878 39.806763,32.518856 34.890320,37.390003 
z"/>
<path fill="#259388" opacity="1.000000" stroke="none" 
	d="
M35.144142,37.137718 
	C39.806763,32.518856 44.107132,28.031878 48.712841,23.883938 
	C49.671734,23.020351 51.760693,23.411554 53.328857,23.224487 
	C53.443504,24.965929 54.362339,27.453510 53.547096,28.332184 
	C46.234550,36.213631 38.656258,43.851902 30.998625,51.401958 
	C30.501030,51.892570 28.401514,51.448097 27.565670,50.784996 
	C24.189297,48.106461 20.939056,45.253113 17.809252,42.288029 
	C16.688528,41.226280 15.498333,39.734486 15.319299,38.315403 
	C15.116458,36.707623 16.013145,34.961124 16.431767,33.274940 
	C18.001604,33.771927 19.955187,33.844547 21.066055,34.849091 
	C23.885632,37.398788 26.327604,40.366058 29.140734,43.403656 
	C31.414469,41.025494 33.152393,39.207748 35.144142,37.137718 
z"/>
</svg>