<svg xmlns="http://www.w3.org/2000/svg" width="50" height="55" viewBox="0 0 50 55">
  <g id="nav_symptom3" transform="translate(0 -2)">
    <path id="パス_15" data-name="パス 15" fill="currentColor" d="M5269.224,356.035a6.562,6.562,0,1,0-6.562-6.562A6.569,6.569,0,0,0,5269.224,356.035Zm0-10.415a3.853,3.853,0,1,1-3.854,3.853A3.857,3.857,0,0,1,5269.224,345.62Z" transform="translate(-5241.96 -340.91)"/>
    <path id="パス_16" data-name="パス 16" fill="currentColor" d="M5501.8,733.682a1.116,1.116,0,0,0-1.574-.112l-2.083,1.805a1.116,1.116,0,0,0,1.461,1.686l2.083-1.805A1.116,1.116,0,0,0,5501.8,733.682Z" transform="translate(-5458.445 -702.377)"/>
    <path id="パス_17" data-name="パス 17" fill="currentColor" d="M5453.462,692.908l-.944,2.611a1.116,1.116,0,1,0,2.1.759l.944-2.611a1.116,1.116,0,0,0-2.1-.759Z" transform="translate(-5416.682 -664.511)"/>
    <path id="パス_18" data-name="パス 18" fill="currentColor" d="M5526.073,798.141l-2.694.583a1.116,1.116,0,1,0,.472,2.181l2.694-.583a1.116,1.116,0,1,0-.472-2.181Z" transform="translate(-5481.214 -762.056)"/>
    <path id="パス_19" data-name="パス 19" fill="currentColor" d="M5048.622,532.838l0,0-.055-.027-.034-.014-.033-.015-13.976-5.567h0a11.083,11.083,0,0,0-4.059-.785H5024.3a6.591,6.591,0,0,0-4.064,1.409,6.5,6.5,0,0,0-2.3,3.63h0l-2.927,12.7h0a8.436,8.436,0,0,0-.076,3.444l-1.485,11.883h-7.9a4.652,4.652,0,0,0,0,9.3h11.136a5.664,5.664,0,0,0,5.617-4.955h0l1.142-9.238h7.718v9.679a4.574,4.574,0,0,0,4.647,4.486,4.712,4.712,0,0,0,3.236-1.282,4.368,4.368,0,0,0,1.413-3.2V551.446h0a5.627,5.627,0,0,0-4.352-5.5h0l-7.83-1.834,2.179-9.482a.282.282,0,0,1,.136-.17.254.254,0,0,1,.206-.013h0l14.693,5.843.037.013.032.013.054.017h0a4.09,4.09,0,0,0,5.051-2.364A4.046,4.046,0,0,0,5048.622,532.838Zm-31.945,33.276h-11.125a1.955,1.955,0,0,1-1.917-1.977,1.918,1.918,0,0,1,1.917-1.949h9.083c.044,0,.089,0,.133-.007l.025,0c.035,0,.068-.009.1-.016l.045-.01.079-.02.051-.017.066-.024.055-.024.059-.028.053-.029.056-.033.049-.033.053-.04.044-.036c.018-.016.036-.032.053-.048s.026-.023.038-.036.036-.039.053-.059l.03-.033a.874.874,0,0,0,.054-.073l.021-.028a1.079,1.079,0,0,0,.058-.1l.007-.012c.021-.037.039-.075.056-.114.006-.013.01-.028.016-.041s.02-.051.028-.077.011-.042.017-.062.011-.041.017-.061.007-.044.011-.066.006-.034.009-.051l1.138-9.1a8.475,8.475,0,0,0,3.662,2.31l-1.15,9.3h0A2.969,2.969,0,0,1,5016.677,566.114Zm31.476-29.139a1.411,1.411,0,0,1-1.724.8l-14.644-5.823h0a2.945,2.945,0,0,0-2.454.129,2.984,2.984,0,0,0-1.511,1.949h0l-2.292,9.975h0a2.176,2.176,0,0,0,.421,1.856,2.27,2.27,0,0,0,1.416.8l8.115,1.9h0a2.947,2.947,0,0,1,2.276,2.881v12.843a1.905,1.905,0,0,1-1.954,1.8,1.882,1.882,0,0,1-1.953-1.8V553.265a1.346,1.346,0,0,0-1.347-1.344h-9.17a5.861,5.861,0,0,1-5.7-7.145h0l2.927-12.7h0a3.812,3.812,0,0,1,3.742-2.953h6.162a8.36,8.36,0,0,1,3.06.593h0l13.925,5.547A1.359,1.359,0,0,1,5048.152,536.975Z" transform="translate(-5000.94 -511.802)"/>
  </g>
</svg>
