<svg xmlns="http://www.w3.org/2000/svg" width="44" height="43" viewBox="0 0 44 43">
    <path data-name="合体 17" d="M5.637 43A5.579 5.579 0 0 1 0 37.492V5.508A5.579 5.579 0 0 1 5.637 0h18.182a1.977 1.977 0 0 1 2 1.954 1.978 1.978 0 0 1-2 1.954H5.637A1.62 1.62 0 0 0 4 5.508v31.984a1.62 1.62 0 0 0 1.637 1.6h32.726a1.62 1.62 0 0 0 1.637-1.6V19.723a2 2 0 0 1 4 0v17.769A5.58 5.58 0 0 1 38.363 43zm2.222-7.679a1.923 1.923 0 0 1-.483-2l3.636-10.662a1.947 1.947 0 0 1 .483-.763L33.313.572a2.035 2.035 0 0 1 2.829 0l7.272 7.108a1.923 1.923 0 0 1 0 2.764L21.6 31.766a2 2 0 0 1-.781.472L9.906 35.793a2.067 2.067 0 0 1-.633.1 2.024 2.024 0 0 1-1.414-.572zm6.8-10.987-2.222 6.515 6.663-2.173 14.239-13.914-4.445-4.343zM36.167 12l3-2.936-4.44-4.346-3 2.936z" style="fill:#fff"/>
</svg>
