<svg xmlns="http://www.w3.org/2000/svg" width="41" height="37" viewBox="0 0 41 37">
    <path data-name="合体 13" d="M5.364 37A5.318 5.318 0 0 1 0 31.742V5.258A1.974 1.974 0 0 1 2 3.31h6V1.947a2 2 0 0 1 4 0V3.31h3V1.947a2 2 0 0 1 4 0V3.31h3V1.947a2 2 0 0 1 4 0V3.31h3V1.947a2 2 0 0 1 4 0V3.31h6a1.974 1.974 0 0 1 2 1.948v26.484A5.318 5.318 0 0 1 35.636 37zM4 31.742A1.364 1.364 0 0 0 5.364 33.1h30.272A1.365 1.365 0 0 0 37 31.742V7.205h-4v1.632a2 2 0 0 1-4 0V7.205h-3v1.632a2 2 0 0 1-4 0V7.205h-3v1.632a2 2 0 0 1-4 0V7.205h-3v1.632a2 2 0 0 1-4 0V7.205H4zm20.646-3.755-4.146-3.71-4.147 3.71a2.037 2.037 0 0 1-2.825-.117 1.912 1.912 0 0 1 .119-2.752l3.9-3.487-3.9-3.487a1.912 1.912 0 0 1-.119-2.752 2.037 2.037 0 0 1 2.825-.116l4.147 3.71 4.146-3.71a2.038 2.038 0 0 1 2.826.116 1.912 1.912 0 0 1-.119 2.752l-3.9 3.487 3.9 3.487a1.912 1.912 0 0 1 .119 2.752 2.038 2.038 0 0 1-2.826.117z" style="fill:#fff"/>
</svg>
