<svg id="icon_area_on" xmlns="http://www.w3.org/2000/svg" width="29" height="35" viewBox="0 0 29 35">
  <g id="グループ_1570" data-name="グループ 1570" transform="translate(0 0)">
    <path id="楕円形_26" data-name="楕円形 26" fill="currentColor" d="M6.626-1a7.686,7.686,0,0,1,0,15.371A7.686,7.686,0,0,1,6.626-1Zm0,12.124a4.438,4.438,0,1,0-4.4-4.438A4.426,4.426,0,0,0,6.626,11.124Z" transform="translate(7.874 6.773)"/>
    <path id="パス_858" data-name="パス 858" fill="currentColor" d="M22.5,8A14.574,14.574,0,0,1,37,22.613a16.646,16.646,0,0,1-3.552,10.081,52.484,52.484,0,0,1-7.267,7.5c-.858.775-1.744,1.577-2.577,2.366a1.6,1.6,0,0,1-2.207,0c-.832-.789-1.719-1.591-2.577-2.366a52.484,52.484,0,0,1-7.267-7.5A16.646,16.646,0,0,1,8,22.613,14.574,14.574,0,0,1,22.5,8Zm0,31.165c.51-.469,1.025-.934,1.529-1.389,5.014-4.533,9.749-8.814,9.749-15.163a11.278,11.278,0,1,0-22.556,0c0,6.348,4.735,10.63,9.749,15.163C21.475,38.232,21.99,38.7,22.5,39.165Z" transform="translate(-8 -8)"/>
  </g>
</svg>
