<svg xmlns="http://www.w3.org/2000/svg" width="36" height="44" viewBox="0 0 36 44">
    <path data-name="合体 15" d="M12.667 44a2 2 0 0 1-.594-.091h-.022a1.994 1.994 0 0 1-.589-.306l-.018-.014-.015-.012h-.006l-.012-.01-.008-.006-.01-.008-.011-.009-.006-.005-.012-.011h-.006l-.018-.028-.015-.013q-.042-.039-.083-.08L.57 32.489a2 2 0 0 1-.288-.375L.276 32.1A1.99 1.99 0 0 1 0 31.14V2a2 2 0 0 1 2-2h32a2 2 0 0 1 2 2v40a2 2 0 0 1-2 2zM32 40V4H4v25.091h8.667a2 2 0 0 1 2 2V40zm-21.334-2.907v-4H6.752zm8.47.486a2 2 0 0 1 0-4h7.849a2 2 0 0 1 0 4zM9.147 24.341a2 2 0 0 1 0-4h10.989a2 2 0 0 1 0 4zm16.55-.927a2 2 0 1 1 1.415.586 2 2 0 0 1-1.412-.586zm0-6.273a2 2 0 1 1 1.414.586 2 2 0 0 1-1.411-.586zm-16.55.586a2 2 0 0 1 0-4h10.989a2 2 0 0 1 0 4zM25.7 10.868a2 2 0 1 1 1.414.586 2 2 0 0 1-1.414-.586zm-16.55.419a2 2 0 0 1 0-4h10.986a2 2 0 0 1 0 4z" style="fill:#fff"/>
</svg>
