<svg xmlns="http://www.w3.org/2000/svg" width="31" height="34" viewBox="0 0 31 34">
    <path data-name="パス 792" d="M162.038 24.22q-.1 0-.205-.01h-5.2a2.125 2.125 0 0 1 0-4.25h3.284v-3.274a2.125 2.125 0 0 1 4.25 0V22.1a2.125 2.125 0 0 1-2.129 2.12z" transform="translate(-135.491 -13.575)" style="fill:currentColor"/>
    <path data-name="パス 793" d="M10.062 27.125A2.094 2.094 0 0 1 8 25c0-9.374 6.9-17 15.378-17a14.58 14.58 0 0 1 10.932 5.041l1.816 2.028a2.171 2.171 0 0 1-.117 3 2.019 2.019 0 0 1-2.914-.121l-1.816-2.028a10.556 10.556 0 0 0-7.9-3.673c-6.205 0-11.254 5.72-11.254 12.75a2.094 2.094 0 0 1-2.063 2.128z" transform="translate(-8 -8)" style="fill:currentColor"/>
    <path data-name="パス 794" d="M25.621 173.1a2.125 2.125 0 0 1-2.125-2.125v-5.409a2.125 2.125 0 0 1 2.125-2.125q.1 0 .2.01h5.2a2.125 2.125 0 0 1 0 4.25h-3.275v3.274a2.125 2.125 0 0 1-2.125 2.125z" transform="translate(-21.168 -140.084)" style="fill:currentColor"/>
    <path data-name="パス 795" d="M36.79 126.125a14.58 14.58 0 0 1-10.932-5.041l-1.816-2.028a2.171 2.171 0 0 1 .117-3 2.019 2.019 0 0 1 2.914.121l1.817 2.023a10.556 10.556 0 0 0 7.9 3.673c6.205 0 11.254-5.72 11.254-12.75a2.063 2.063 0 1 1 4.124 0c0 9.377-6.899 17.002-15.378 17.002z" transform="translate(-21.168 -92.125)" style="fill:currentColor"/>
</svg>
