<svg xmlns="http://www.w3.org/2000/svg" width="20" height="18" viewBox="0 0 20 18">
  <path id="icon_datepicker" fill="currentColor" d="M2.6,18A2.591,2.591,0,0,1,0,15.427V2.436a.953.953,0,0,1,.96-.948h2.4V.948a.96.96,0,0,1,1.919,0v.539H7.2V.948a.96.96,0,0,1,1.92,0v.539h1.919V.948a.96.96,0,0,1,1.919,0v.539h1.919V.948a.96.96,0,0,1,1.919,0v.539H19.04a.954.954,0,0,1,.96.948V15.427A2.591,2.591,0,0,1,17.4,18Zm-.684-2.573A.68.68,0,0,0,2.6,16.1H17.4a.68.68,0,0,0,.683-.676V8.534H1.919ZM18.08,6.637V3.384H16.794v.409a.96.96,0,0,1-1.919,0V3.384H12.956v.409a.96.96,0,0,1-1.919,0V3.384H9.117v.409a.96.96,0,0,1-1.92,0V3.384H5.278v.409a.96.96,0,0,1-1.919,0V3.384H1.919V6.637ZM14.451,13.8a.822.822,0,1,1,.822.812A.818.818,0,0,1,14.451,13.8Zm-3.287,0a.822.822,0,1,1,.822.812A.817.817,0,0,1,11.163,13.8Zm-3.287,0a.822.822,0,1,1,.822.812A.817.817,0,0,1,7.876,13.8Zm-3.287,0a.822.822,0,1,1,.822.812A.817.817,0,0,1,4.589,13.8Zm9.862-3.248a.822.822,0,1,1,.822.812A.818.818,0,0,1,14.451,10.555Zm-3.287,0a.822.822,0,1,1,.822.812A.817.817,0,0,1,11.163,10.555Zm-3.287,0a.822.822,0,1,1,.822.812A.817.817,0,0,1,7.876,10.555Zm-3.287,0a.822.822,0,1,1,.822.812A.817.817,0,0,1,4.589,10.555Z"/>
</svg>
