<svg id="icon_station_on" xmlns="http://www.w3.org/2000/svg" width="29" height="41" viewBox="0 0 29 41">
  <path id="線_8" data-name="線 8" fill="currentColor" d="M10.28,2.3H.649a1.649,1.649,0,1,1,0-3.3H10.28a1.649,1.649,0,1,1,0,3.3Z" transform="translate(9.036 4.535)"/>
  <path id="長方形_1315" data-name="長方形 1315" fill="currentColor" d="M5.439-1H20.565A6.526,6.526,0,0,1,27,5.6V27.074a6.526,6.526,0,0,1-6.439,6.6H5.439A6.526,6.526,0,0,1-1,27.074V5.6A6.526,6.526,0,0,1,5.439-1ZM20.565,30.371a3.263,3.263,0,0,0,3.22-3.3V5.6a3.263,3.263,0,0,0-3.22-3.3H5.439A3.263,3.263,0,0,0,2.22,5.6V27.074a3.263,3.263,0,0,0,3.22,3.3Z" transform="translate(1.499 1)"/>
  <path id="線_9" data-name="線 9" fill="currentColor" d="M21.8,2.3H.6A1.627,1.627,0,0,1-1,.649,1.627,1.627,0,0,1,.6-1H21.8A1.627,1.627,0,0,1,23.4.649,1.627,1.627,0,0,1,21.8,2.3Z" transform="translate(4.915 8.098)"/>
  <path id="線_10" data-name="線 10" fill="currentColor" d="M21.8,2.3H.6A1.627,1.627,0,0,1-1,.649,1.627,1.627,0,0,1,.6-1H21.8A1.627,1.627,0,0,1,23.4.649,1.627,1.627,0,0,1,21.8,2.3Z" transform="translate(4.915 20.338)"/>
  <path id="線_11" data-name="線 11" fill="currentColor" d="M.647,10.758A1.649,1.649,0,0,1-.75,8.236L4.529-.224a1.649,1.649,0,1,1,2.8,1.746L2.048,9.982A1.648,1.648,0,0,1,.647,10.758Z" transform="translate(1 30.242)"/>
  <path id="線_12" data-name="線 12" fill="currentColor" d="M5.766,10.677a1.648,1.648,0,0,1-1.409-.79L-.758,1.508A1.649,1.649,0,1,1,2.056-.21L7.172,8.169a1.649,1.649,0,0,1-1.406,2.508Z" transform="translate(21.587 30.323)"/>
  <path id="線_13" data-name="線 13" fill="currentColor" d="M20.363,2.3H.6A1.626,1.626,0,0,1-1,.649,1.626,1.626,0,0,1,.6-1H20.363a1.626,1.626,0,0,1,1.6,1.649A1.626,1.626,0,0,1,20.363,2.3Z" transform="translate(4.018 34.537)"/>
  <path id="線_14" data-name="線 14" fill="currentColor" d="M3.539,2.3H.649a1.649,1.649,0,1,1,0-3.3h2.89a1.649,1.649,0,1,1,0,3.3Z" transform="translate(5.282 26.079)"/>
  <path id="線_15" data-name="線 15" fill="currentColor" d="M3.539,2.3H.649a1.649,1.649,0,1,1,0-3.3h2.89a1.649,1.649,0,1,1,0,3.3Z" transform="translate(19.53 26.079)"/>
</svg>
