<svg id="logo_vertical" xmlns="http://www.w3.org/2000/svg" width="98" height="96" viewBox="0 0 98 96">
  <g id="グループ_2" data-name="グループ 2">
    <g id="グループ_1" data-name="グループ 1">
      <path id="パス_1" data-name="パス 1" fill="currentColor" d="M344.736,490.986c0,1.051-.669,1.433-1.862,1.433-.716,0-1.146-.43-1.146-1.288,0-.431.048-2.34.048-4.489a25.25,25.25,0,0,1-9.645,6.924c-1.289.524-2.1-.621-1-1.434a25.776,25.776,0,0,0,9.215-9.071h-3.2v.285c0,1-.669,1.433-1.862,1.433q-1.146,0-1.146-1.289a66.857,66.857,0,0,0-.191-8.5.54.54,0,0,1,.716-.573,9.153,9.153,0,0,1,3.056,1.289h4.2c0-.86,0-1.815-.048-2.77h-9.408c-.621,0-1.051-.191-1.051-.955,0-.716.43-.955,1.051-.955h9.408c-.049-1.48-.145-2.818-.24-3.724a.569.569,0,0,1,.622-.669c1.288,0,4.631.237,4.631,1.24,0,.622-.764,1-2.053,1.1,0,.431-.048,1.2-.048,2.053h4.537c.763-1.1,1.719-2.291,2.243-2.291.813,0,3.629,2.339,3.629,3.294.048.621-.621.907-2.149.907h-8.308l-.048,2.77h4.153c.527-.764,1.2-1.431,1.624-1.431.812,0,3.3,1.909,3.3,2.912,0,.572-.667.955-1.384,1.289,0,1.194-.049,3.152-.049,3.868,0,1.479-.62,1.813-1.767,1.813a1.194,1.194,0,0,1-1.288-1.1h-4.585Zm22.251,15.471c1.051-1.528,2.388-3.3,3.151-3.3.956,0,4.489,2.913,4.489,4.107,0,.669-.764,1.1-2.674,1.1H332.32c-.62,0-1.051-.191-1.051-.955,0-.716.431-.955,1.051-.955h9.645c.048-3.007.048-6.972-.143-8.881a.6.6,0,0,1,.669-.716c.812,0,4.823.19,4.823,1.337,0,.764-.812,1.1-2.053,1.385v6.875H351.9V495.236H336.571c-.621,0-1.051-.191-1.051-.954,0-.716.43-.956,1.051-.956h27.264c.86-1.289,1.958-2.674,2.579-2.674.86,0,3.964,2.58,3.964,3.631,0,.619-.669.954-2.34.954h-11.89c0,.478-.287.812-.907,1v3.438h6.972c.906-1.289,2-2.722,2.625-2.722.86,0,3.962,2.626,3.962,3.677.049.619-.763.954-2.339.954H355.24v4.871ZM337.1,481.15h4.776l.048-2.1v-1.431h-4.775c0,.573-.048,1.861-.048,2.864Zm7.592-3.533v3.533h4.537c.048-1.1.1-2.482.1-3.533Zm6.972,9.789a1.785,1.785,0,0,1-1.577,2.1c-1,.142-1.431-.812-2.052-1.671-.43-.573-.956-1.146-1.433-1.671-.716-.764-.334-1.718.907-1.48C349.462,485.066,351.421,485.734,351.66,487.406ZM370,476.042a1.6,1.6,0,0,1,.858,1.1c0,.572-.669.86-2.1.906a20.531,20.531,0,0,1-3.485,6.352,20.5,20.5,0,0,0,9.217,3.867c1.575.24.954.956.094,1.337a3.875,3.875,0,0,0-1.861,1.433c-.479.669-.718,1.051-2.246.573a17.275,17.275,0,0,1-7.5-4.822,25.969,25.969,0,0,1-11.126,5.252c-1.433.334-1.767-1-.476-1.527a26.254,26.254,0,0,0,9.93-5.874,22.456,22.456,0,0,1-2.912-6.208,20.416,20.416,0,0,1-3.868,4.394c-1.1.907-2.053.048-1.337-1.051a32.967,32.967,0,0,0,6.017-14.419c.046-.479.381-.716.955-.621,1.671.334,4.155,1.385,4.155,2.2,0,.669-.574.955-2.1,1-.479,1.385-1,2.77-1.577,4.2h7.88c.907-1.289,1.957-2.722,2.579-2.722.858,0,3.771,2.626,3.819,3.629,0,.669-.86,1-2.244,1Zm-10.315.143a17.113,17.113,0,0,0,3.486,6.255,16.588,16.588,0,0,0,2.77-6.4h-6.207Z" transform="translate(-330.612 -466.635)"/>
      <path id="パス_2" data-name="パス 2" fill="currentColor" d="M379.886,508.214c0,1.049-.669,1.576-2.1,1.576a1.174,1.174,0,0,1-1.289-1.337c0-3.056.287-17.429.046-24.209a43.686,43.686,0,0,1-5.586,6.446c-1,1-2.149.1-1.288-1.1,5.252-6.828,9.454-14.754,10.791-22.2.1-.527.285-.764.858-.716,1.719.334,4.919,1.815,4.919,2.864.048.812-.907,1.051-2.34.861a64.528,64.528,0,0,1-4.726,9.787c1.145.479,2.625,1.242,2.625,1.91s-.812.956-1.815,1.1c-.142,2.292-.142,9.789-.142,11.317Zm20.2-27.7c3.438,7.115,8.883,12.082,15.089,14.325,1.528.479.86,1.146.1,1.433a3.439,3.439,0,0,0-1.862,1.431c-.572.861-.954,1.147-2.243.574-4.489-2.531-9.026-8.213-11.985-15.471v5.014c0,1.624.048,6.016.1,10.362h2.961c.906-1.337,2-2.77,2.625-2.77.907,0,3.82,2.625,3.82,3.676,0,.669-.86,1-2.2,1h-7.21c.046,3.868.094,7.259.094,8.165,0,1.1-.667,1.719-2.148,1.719a1.306,1.306,0,0,1-1.433-1.431c0-.955.1-4.537.191-8.453h-7.019c-.621,0-1.051-.19-1.051-.955,0-.716.43-.954,1.051-.954h7.066c.1-3.964.191-7.832.191-9.406V485.2c-3.1,6.4-7.831,12.32-13.8,15.806-1.289.81-2.2-.287-1.1-1.243a45.307,45.307,0,0,0,13.036-19.243H383.7c-.621,0-1.051-.19-1.051-.954,0-.716.43-.955,1.051-.955h12.511a87.178,87.178,0,0,0-.573-10.745c-.094-.428.191-.669.621-.669,2.961,0,5.443.286,5.443,1.433,0,.813-.955,1.289-2.434,1.576-.048,1.576-.048,4.966-.1,8.4h7.5c1.051-1.528,2.388-3.343,3.151-3.343.956,0,4.537,2.961,4.537,4.153,0,.669-.906,1.1-2.722,1.1Z" transform="translate(-318.092 -466.625)"/>
    </g>
  </g>
  <g id="グループ_3" data-name="グループ 3" transform="translate(4.872 57.943)">
    <path id="パス_3" data-name="パス 3" fill="currentColor" d="M420.625,495.572a2.089,2.089,0,0,1-1.577,1,1.882,1.882,0,0,1-1.67-2.1c0-1.433.143-1.576.716-2.149,1.384-1.48,3.152-3.389,6.446-11.506a20.413,20.413,0,0,1-4.537.476c-2.2,0-3.15-.573-3.915-1.576a3.376,3.376,0,0,1-.669-1.385c0-.334.19-.476.382-.476a8.144,8.144,0,0,1,1.145.476,6.144,6.144,0,0,0,2.628.479,26.1,26.1,0,0,0,5.777-.764,21.042,21.042,0,0,0,.812-5.3c0-.382-.287-2-.287-2.339a1.416,1.416,0,0,1,1.433-1.291,2.675,2.675,0,0,1,2.436,2.531,24.182,24.182,0,0,1-1.671,5.586c.286-.142,1.766-.715,1.958-.81a4.639,4.639,0,0,1,1.336-.716c.813,0,2.006.573,2.006,1.575,0,.861-1.146,1.434-1.337,1.529-.906.382-2.339.81-4.965,1.575C425.829,483.636,422.057,493.709,420.625,495.572Zm26.309,9.789c0,1-.382,1.624-1.289,1.624a2.553,2.553,0,0,1-2.291-1.146c-.622-.621-3.631-3.629-5.35-4.535-.287,1.575-1.049,5.873-7.353,5.873-2.339,0-7.066-.907-7.066-4.3,0-3.152,3.533-5.108,8.5-5.108,1.194,0,2.15.1,2.961.143-.1-1.767-.239-5.731-.239-6.781,0-3.151.1-4.774,3.1-7.019a3.385,3.385,0,0,1,1.385-.669.728.728,0,0,1,.716.669c0,.382-1.338,1.576-1.576,1.862a4.858,4.858,0,0,0-1.146,3.2c0,1.482.812,8.023.812,9.36C441.587,499.391,446.935,502.974,446.935,505.36Zm-16.521-5.635c-2.627,0-4.776,1-4.776,2.818,0,2.054,3.009,2.245,4.107,2.245,2.339,0,5.013-1.145,5.2-4.3A13.084,13.084,0,0,0,430.414,499.725Zm15.757-17.237c-.478,0-2.961.287-3.009.287-.094,0-.764,0-.764-.476,0-.527.812-.813,1.051-.861.622-.237,1.051-.478,1.051-.906,0-1.337-3.246-1.767-5.062-1.959-.237-.046-.669-.094-.669-.476,0-.621,2.34-1.147,3.725-1.147.716,0,6.686.24,6.686,3.677C449.179,482.488,446.982,482.488,446.17,482.488Z" transform="translate(-415.42 -469.118)"/>
    <path id="パス_4" data-name="パス 4" fill="currentColor" d="M477.088,485.6c0,2.2-.192,9.215-2.388,13.466-3.1,5.873-7.736,6.446-10.266,6.446-6.16,0-10.171-3.771-10.171-9.836,0-5.777,3.962-11.985,5.682-14.134.478-.621,2.913-3.2,3.391-3.725a22,22,0,0,1-6.734,2.15c-1.528,0-2.339-1.577-2.339-3.249,0-.19,0-.669.334-.669a9.682,9.682,0,0,1,1,.479,3.6,3.6,0,0,0,1.624.334,13.605,13.605,0,0,0,7.114-2.245c.909-.764,1.1-.907,1.911-.907a2.242,2.242,0,0,1,2.291,2c0,.861-.285,1-1.862,1.768-2.77,1.336-9.072,10.027-9.072,17.38a7.824,7.824,0,0,0,1.862,5.54,7.49,7.49,0,0,0,5.156,1.813c5.826,0,11.269-6.207,11.269-22.536,0-.334,0-2.006-.048-2.149-.142-.813-1.479-4.155-1.479-4.871,0-.955.382-1.194,1.242-1.194,1.909,0,2,.907,2.243,2.674.956,7.927,6.59,16.234,9.456,17.811,1.813,1,2.243,1.193,2.243,2.625,0,1.337-1.433,1.624-2.388,1.624-2.434,0-3.819-2.006-6.3-6.829a43.62,43.62,0,0,1-4.059-10.982C476.848,479.435,477.088,485.118,477.088,485.6ZM481,473.371c0-.239.239-.334.478-.334,2.006,0,5.538,1.385,5.538,3.82a1.555,1.555,0,0,1-1.431,1.527c-.956,0-1.1-.286-2.006-2.052a10.109,10.109,0,0,0-2.388-2.627A.607.607,0,0,1,481,473.371ZM489.6,474.8c-.86,0-1-.191-2-1.767a7.311,7.311,0,0,0-2.674-2.577.43.43,0,0,1-.24-.383c0-.382.621-.382.716-.382,2.58,0,5.731,1.337,5.731,3.583A1.539,1.539,0,0,1,489.6,474.8Z" transform="translate(-402.87 -468.93)"/>
  </g>
</svg>
