<svg xmlns="http://www.w3.org/2000/svg" width="53" height="53" viewBox="0 0 53 53">
  <g id="nav_symptom2" transform="translate(0 -4)">
    <g id="グループ_8" data-name="グループ 8" transform="translate(0)">
      <path id="パス_5" data-name="パス 5" fill="currentColor" d="M1692.305,1551.459a9.816,9.816,0,1,0-9.816-9.816A9.827,9.827,0,0,0,1692.305,1551.459Zm0-16.929a7.113,7.113,0,1,1-7.113,7.113A7.121,7.121,0,0,1,1692.305,1534.53Z" transform="translate(-1668.903 -1527.827)"/>
      <path id="パス_6" data-name="パス 6" fill="currentColor" d="M1554.2,1831.934h0l-5.469-9.392h0a9.67,9.67,0,0,0-8.319-4.806h-21.645a9.658,9.658,0,0,0-9.358,7.5h0l-1.9,7.893h0a8.5,8.5,0,0,0,3,8.633,8.124,8.124,0,0,0,7.005,1.518v7.415a1.329,1.329,0,1,0,2.657,0v-8.564l16.521-8.989.015-.009.035-.019a5.636,5.636,0,0,0,2.057-7.453,5.434,5.434,0,0,0-7.228-2.386l-.024.013-.025.012-14.546,7.893a1.363,1.363,0,0,0-.547,1.829,1.325,1.325,0,0,0,1.173.716,1.3,1.3,0,0,0,.624-.159l14.513-7.875a2.8,2.8,0,0,1,3.717,1.233,2.913,2.913,0,0,1-1.052,3.841l-17.191,9.354-.008,0-.029.016h0a5.5,5.5,0,0,1-6.04-.525,5.772,5.772,0,0,1-2.05-5.855l1.9-7.892h0a7,7,0,0,1,6.778-5.441h21.645a7.011,7.011,0,0,1,6.033,3.481h0l5.469,9.392h0a10.039,10.039,0,0,1-1.606,12.193l0,0,0,0-4.228,4.223a1.368,1.368,0,0,0-.017,1.911,1.313,1.313,0,0,0,1.879.018l4.228-4.223h0a12.769,12.769,0,0,0,2.035-15.5Z" transform="translate(-1507.272 -1795.049)"/>
      <path id="パス_7" data-name="パス 7" fill="currentColor" d="M1939.71,1967.8h0a3.086,3.086,0,0,0,.5-3.75h0l-4.538-7.656a1.352,1.352,0,1,0-2.325,1.378l4.538,7.655h0a.376.376,0,0,1-.055.434h0l-3.787,3.668-.007.007c-.019.019-.037.039-.055.059l-.037.04c-.015.018-.028.037-.042.056s-.026.034-.038.051-.019.031-.028.046-.028.044-.04.067-.014.03-.021.044-.025.048-.035.073-.021.055-.03.082-.01.027-.015.04-.014.052-.02.077-.009.034-.013.05-.007.042-.01.064-.008.045-.01.068,0,.037,0,.055,0,.053,0,.08c0,0,0,.007,0,.01v7.222a1.352,1.352,0,0,0,2.7,0v-6.649Z" transform="translate(-1899.914 -1922.068)"/>
      <path id="パス_8" data-name="パス 8" fill="currentColor" d="M1931.284,1676.464h.03a1.113,1.113,0,0,0,1.112-1.083l.072-2.681.435.128.039.01a1.863,1.863,0,0,0,.5.068,2.139,2.139,0,0,0,1.229-.4,1.905,1.905,0,0,0,.8-1.522s0,0,0-.007l.118-2.96a1.113,1.113,0,0,0-2.224-.089l-.107,2.686-.4-.118-.008,0a1.936,1.936,0,0,0-1.72.246,2.136,2.136,0,0,0-.883,1.619s0,0,0,0v0l-.079,2.96A1.113,1.113,0,0,0,1931.284,1676.464Z" transform="translate(-1893.164 -1659.133)"/>
      <path id="パス_9" data-name="パス 9" fill="currentColor" d="M2003.757,1724.3a1.113,1.113,0,0,0,1.505-.462l1.255-2.368.321.3.007.006a2.089,2.089,0,0,0,1.714.5,1.973,1.973,0,0,0,1.438-1.039h0l1.381-2.6a1.113,1.113,0,0,0-1.967-1.043l-1.256,2.368-.321-.3-.008-.007a1.976,1.976,0,0,0-1.674-.5,2.035,2.035,0,0,0-1.477,1.039h0l-1.381,2.6A1.113,1.113,0,0,0,2003.757,1724.3Z" transform="translate(-1960.586 -1704.283)"/>
      <path id="パス_10" data-name="パス 10" fill="currentColor" d="M2068.558,1812.272a1.113,1.113,0,0,0-1.551-.268l-2.18,1.536-.1-.327-.008-.021-.006-.021c-.008-.022-.017-.043-.025-.064h0a2.034,2.034,0,0,0-3.039-.909l-.007,0-2.407,1.7a1.113,1.113,0,1,0,1.282,1.82l2.18-1.537.1.327c0,.008.006.016.009.025s0,.012.005.017l.01.027.011.029a2.02,2.02,0,0,0,1.316,1.144,2.211,2.211,0,0,0,.664.105,1.826,1.826,0,0,0,1.032-.312l.036-.023,2.407-1.7A1.113,1.113,0,0,0,2068.558,1812.272Z" transform="translate(-2015.762 -1789.56)"/>
    </g>
  </g>
</svg>
