<svg id="nav_symptom6" xmlns="http://www.w3.org/2000/svg" width="53.297" height="55.182" viewBox="0 0 53.297 55.182">
  <path id="パス_28" data-name="パス 28" fill="currentColor" d="M5215.681,1540.715a9.15,9.15,0,1,0-9.15,9.15A9.161,9.161,0,0,0,5215.681,1540.715Zm-9.15,6.536a6.536,6.536,0,1,1,6.536-6.536A6.543,6.543,0,0,1,5206.531,1547.251Z" transform="translate(-5179.882 -1531.565)"/>
  <path id="パス_29" data-name="パス 29" fill="currentColor" d="M4990.1,1746.093l-7.955-8.3a26.357,26.357,0,0,1,4.892-3.082,1.307,1.307,0,1,0-1.146-2.349,28.641,28.641,0,0,0-6.523,4.355l-.017.016-.018.015-.029.031-.048.051-.04.048c-.014.018-.028.036-.042.055s-.023.034-.035.051-.024.038-.036.057-.02.037-.029.055-.02.038-.029.058-.017.039-.024.058-.016.039-.022.059-.013.04-.019.061-.011.04-.016.06-.009.041-.013.062-.007.041-.01.062,0,.041-.006.062,0,.042,0,.064,0,.041,0,.061,0,.043,0,.065,0,.04.005.06,0,.044.008.065.006.039.01.059.009.043.015.064.011.039.017.058.013.042.02.062.016.039.023.058.017.039.026.059.02.039.03.058.02.037.031.055.024.038.037.057.023.035.036.052l.043.054.026.033.016.016.016.019,8.918,9.305.016.015.014.016a2.832,2.832,0,1,1-4.083,3.92l-.016-.016-.014-.016-10.295-10.73h0a5.23,5.23,0,0,1,.659-7.812h0l7.589-5.655h0a5.288,5.288,0,0,1,3.135-1.046h2.3a1.307,1.307,0,1,0,0-2.614h-2.3a7.921,7.921,0,0,0-4.7,1.564h0l-7.589,5.656h0a7.844,7.844,0,0,0-.984,11.716h0l10.3,10.731.005.005a5.452,5.452,0,0,0,1.117.933l-1.112,8.3a1.307,1.307,0,0,0,1.122,1.469,1.33,1.33,0,0,0,.175.012,1.308,1.308,0,0,0,1.294-1.134l1.047-7.824c.126.009.252.015.379.015a5.444,5.444,0,0,0,3.83-9.316Z" transform="translate(-4969.771 -1709.171)"/>
  <path id="パス_30" data-name="パス 30" fill="currentColor" d="M5385.827,1754.581a5.418,5.418,0,0,0,1.136-.946l.006-.005,10.3-10.731h0a7.843,7.843,0,0,0-.985-11.717h0l-7.588-5.655h0a7.92,7.92,0,0,0-4.7-1.564h-2.3a1.307,1.307,0,0,0,0,2.614h2.3a5.287,5.287,0,0,1,3.134,1.046l7.589,5.655h0a5.231,5.231,0,0,1,.658,7.812h0l-10.3,10.73-.014.016-.016.016a2.84,2.84,0,1,1-4.108-3.92l.015-.016.016-.015,8.918-9.305c.005-.006.01-.013.017-.019l.015-.016.026-.033c.015-.018.03-.036.043-.054s.024-.034.036-.051l.038-.057c.011-.018.021-.036.031-.055s.021-.039.03-.059.017-.039.025-.058.016-.039.023-.059.014-.041.02-.061.013-.039.017-.06.01-.042.015-.063.007-.04.011-.06.006-.043.007-.064a.5.5,0,0,0,.005-.061c0-.021,0-.042,0-.064s0-.041,0-.062,0-.042,0-.063,0-.042-.007-.062-.006-.041-.01-.061-.007-.042-.013-.062-.01-.04-.016-.06-.012-.041-.019-.061-.015-.039-.022-.059-.015-.039-.024-.058-.018-.039-.029-.058-.018-.037-.029-.055-.022-.038-.035-.057-.022-.034-.035-.051-.027-.037-.042-.055-.025-.032-.04-.047-.032-.035-.048-.051l-.029-.03a.186.186,0,0,0-.018-.015.208.208,0,0,0-.016-.017,28.508,28.508,0,0,0-6.478-4.357,1.307,1.307,0,0,0-1.145,2.349,25.8,25.8,0,0,1,4.847,3.081l-7.957,8.3h0a5.456,5.456,0,0,0,3.855,9.316c.12,0,.239-.005.358-.013l1.068,7.826a1.307,1.307,0,1,0,2.59-.353Z" transform="translate(-5346.145 -1709.171)"/>
  <path id="パス_31" data-name="パス 31" fill="currentColor" d="M4982.494,2037.178l-2.275-.923.213-.279.005-.008a1.907,1.907,0,0,0-.793-2.947h0l-2.562-1.039a1.076,1.076,0,0,0-.81,1.995l2.275.923-.213.279s0,.006-.006.009a1.944,1.944,0,0,0,.794,2.945h0l2.562,1.039a1.076,1.076,0,1,0,.809-1.995Z" transform="translate(-4975.151 -1993.436)"/>
  <path id="パス_32" data-name="パス 32" fill="currentColor" d="M4981.685,2151.443l-2.562,1.04h0a1.944,1.944,0,0,0-.794,2.946l.006.009.213.279-2.275.923a1.076,1.076,0,1,0,.81,1.995l2.562-1.039h0a1.907,1.907,0,0,0,.793-2.946l-.005-.008-.213-.28,2.275-.923a1.076,1.076,0,1,0-.809-2Z" transform="translate(-4975.151 -2103.714)"/>
  <path id="パス_33" data-name="パス 33" fill="currentColor" d="M5564.85,2031.981l-2.561,1.039h0a1.924,1.924,0,0,0-1.113,1.293,1.9,1.9,0,0,0,.311,1.673l0,.006.005.007.2.251-2.264.927a1.076,1.076,0,1,0,.816,1.992l2.536-1.039h0a1.933,1.933,0,0,0,.8-2.965l-.005-.006,0-.007-.2-.25,2.285-.927a1.076,1.076,0,1,0-.81-1.995Z" transform="translate(-5513.482 -1993.436)"/>
  <path id="パス_34" data-name="パス 34" fill="currentColor" d="M5565.659,2156.64l-2.285-.927.2-.25,0-.007.005-.006a1.933,1.933,0,0,0-.8-2.965h0l-2.536-1.038a1.076,1.076,0,1,0-.816,1.992l2.264.927-.2.251,0,.006-.005.006a1.9,1.9,0,0,0-.311,1.674,1.925,1.925,0,0,0,1.113,1.293h0l2.561,1.04a1.076,1.076,0,0,0,.81-1.995Z" transform="translate(-5513.482 -2103.714)"/>
</svg>
