<svg xmlns="http://www.w3.org/2000/svg" width="37" height="55" viewBox="0 0 37 55">
  <g id="nav_symptom4" transform="translate(0 -3)">
    <path id="パス_20" data-name="パス 20" fill="currentColor" d="M509.592,2919.7a5.251,5.251,0,0,0-4.158-5.1h-.005l-5.435-1.219a.345.345,0,0,1-.049-.08.056.056,0,0,1,0-.051h0a16.518,16.518,0,0,0-1.583-18.654h0a9.023,9.023,0,0,0-12.1-1.656h0l0,0h0l-6.051,4.152,0,0h0a7,7,0,0,0-1.581,10.065h0l0,0h0l5.35,6.907.007.007.008.011a3.907,3.907,0,0,0,2.74,1.425,6.651,6.651,0,0,0,.795,2.037l-2.856,9.221h-7.643a4.332,4.332,0,1,0,0,8.661h10.36a5.575,5.575,0,0,0,5.3-4.36v0l2.971-9.593,4.974.952v8.8a4.03,4.03,0,0,0,1.381,3.041,4.683,4.683,0,0,0,3.122,1.162,4.342,4.342,0,0,0,4.46-4.2V2919.7h0Zm-21.519-18.69a.079.079,0,0,1,.085.009h0a5.265,5.265,0,0,1,1.193,6.621h0l-.214.378-3.916-5.024Zm1.909,29.28,0,.01,0,.01c-.165.563-.839,2.4-2.592,2.4H477.035a1.631,1.631,0,0,1-1.623-1.626,1.61,1.61,0,0,1,1.623-1.584h8.682c.045,0,.09,0,.135-.007l.028,0q.05-.006.1-.015l.042-.008.082-.02.045-.013c.032-.01.064-.021.1-.034l.055-.023.075-.035.046-.025.064-.038.041-.027c.023-.016.045-.032.068-.049l.03-.024c.03-.024.06-.05.088-.077l0,0q.047-.045.089-.094l.008-.01c.023-.028.046-.057.067-.087l.02-.03c.016-.023.031-.048.046-.073l.023-.041c.012-.021.022-.043.033-.066s.016-.033.023-.05.016-.041.024-.062.014-.037.02-.056v0l2.687-8.679a7.05,7.05,0,0,0,2.22.924l.037.007.012,0,.851.163Zm15.15,2.42a1.58,1.58,0,0,1-1.683-1.478v-9.921a1.375,1.375,0,0,0-1.136-1.337l-9.706-1.859a4.106,4.106,0,0,1-3.151-3.334l.054-.037a3.657,3.657,0,0,0,1.367-4.121l.948-1.674h0a7.912,7.912,0,0,0,.914-5.3,8.011,8.011,0,0,0-2.724-4.685h0a2.956,2.956,0,0,0-3.582-.173h0l-3.286,2.286h-.006a2.08,2.08,0,0,0-.909,1.424,2.278,2.278,0,0,0,.433,1.73h0l5.343,6.855a1.026,1.026,0,0,1-.19,1.472,1.233,1.233,0,0,1-.266.146c-.028.009-.056.019-.084.03a1.151,1.151,0,0,1-1.243-.32l-5.34-6.894h0v0a4.342,4.342,0,0,1-.848-3.342,4.277,4.277,0,0,1,1.815-2.87h0l6.051-4.152h0l0,0a6.143,6.143,0,0,1,8.243,1.115h0a13.87,13.87,0,0,1,1.334,15.663h0a2.714,2.714,0,0,0-.107,2.469,2.835,2.835,0,0,0,1.935,1.616h.006l5.48,1.228a2.515,2.515,0,0,1,1.984,2.447v11.531A1.567,1.567,0,0,1,505.132,2932.709Z" transform="translate(-472.592 -2877.434)"/>
    <path id="パス_21" data-name="パス 21" fill="currentColor" d="M663.224,2736.334a6.053,6.053,0,1,0-6.053-6.053A6.06,6.06,0,0,0,663.224,2736.334Zm0-9.279a3.226,3.226,0,1,1-3.226,3.226A3.23,3.23,0,0,1,663.224,2727.055Z" transform="translate(-640.875 -2721.228)"/>
    <path id="パス_22" data-name="パス 22" fill="currentColor" d="M499.421,3119.453l2.364.962-.226.276-.006.008-.007.008a1.855,1.855,0,0,0-.335,1.634,1.921,1.921,0,0,0,1.111,1.29h0l2.595,1.055a1.039,1.039,0,1,0,.783-1.926l-2.364-.961.226-.276.007-.009.006-.007a1.94,1.94,0,0,0,.379-1.677,1.894,1.894,0,0,0-1.155-1.246h0l-2.595-1.056a1.039,1.039,0,1,0-.783,1.926Z" transform="translate(-496.596 -3085.781)"/>
    <path id="パス_23" data-name="パス 23" fill="currentColor" d="M494.523,3235.872a1.036,1.036,0,0,0,.295-.043l2.683-.792.006,0,.007,0a1.972,1.972,0,0,0,1.236-1.205,1.874,1.874,0,0,0-.163-1.635l-.01-.016-.014-.023c-.006-.01-.014-.019-.02-.028l-.019-.028-.2-.261,2.444-.761a1.039,1.039,0,1,0-.618-1.985l-2.683.835,0,0a1.768,1.768,0,0,0-1.184,1.115,1.963,1.963,0,0,0,.117,1.676l.014.022.013.021.015.02c.008.012.016.025.025.037l.22.294-2.454.724a1.04,1.04,0,0,0,.294,2.037Z" transform="translate(-491.746 -3188.374)"/>
  </g>
</svg>
