<svg xmlns="http://www.w3.org/2000/svg" width="14" height="15" viewBox="0 0 14 15">
    <path data-name="パス 8818" d="M6.717-12.885 5.15-7.506H.21l3.976 3.332L2.66 1.115l4.057-3.272 4.043 3.272-1.513-5.289 3.963-3.332H8.27z" transform="translate(.29 13.385)" style="fill:#eb6600"/>
    <path data-name="★ - アウトライン" d="M6.717-13.385a.457.457 0 0 1 .428.345L8.609-8h4.651a.456.456 0 0 1 .426.34.53.53 0 0 1-.156.556L9.792-3.989 11.22.965a.529.529 0 0 1-.165.555.415.415 0 0 1-.528 0L6.716-1.541 2.892 1.521a.415.415 0 0 1-.528 0A.529.529 0 0 1 2.2.964l1.44-4.953-3.75-3.119a.53.53 0 0 1-.157-.556A.456.456 0 0 1 .16-8h4.651l1.478-5.036a.457.457 0 0 1 .428-.349zm5.2 6.377H8.282a.457.457 0 0 1-.428-.345l-1.139-3.916-1.149 3.916a.457.457 0 0 1-.428.344h-3.63l2.929 2.437a.53.53 0 0 1 .158.551L3.477-.177 6.453-2.56a.415.415 0 0 1 .527 0L9.946-.177 8.838-4.022A.53.53 0 0 1 9-4.572z" transform="translate(.29 13.385)" style="fill:#ea6500"/>
</svg>
