<svg xmlns="http://www.w3.org/2000/svg" width="15" height="15" viewBox="0 0 15 15">
    <defs>
        <clipPath id="zwcgnwtj5a">
            <path data-name="長方形 6803" style="fill:#fff" d="M0 0h7.5v14H0z"/>
        </clipPath>
    </defs>
    <path data-name="パス 8817" d="M7.217-12.885 5.53-7.506H.21l4.282 3.332-1.643 5.289 4.368-3.272 4.354 3.272-1.629-5.289 4.268-3.332H8.89z" transform="translate(.29 13.385)" style="fill:#eb6600"/>
    <path data-name="★ - アウトライン" d="M7.217-13.385a.484.484 0 0 1 .459.345L9.245-8h4.983a.483.483 0 0 1 .457.34.508.508 0 0 1-.167.556l-4.006 3.12 1.53 4.949a.508.508 0 0 1-.177.555.469.469 0 0 1-.565 0L7.217-1.541l-4.1 3.062a.469.469 0 0 1-.565 0 .508.508 0 0 1-.173-.557l1.542-4.953L-.1-7.108a.508.508 0 0 1-.168-.556A.484.484 0 0 1 .192-8h4.984l1.583-5.036a.484.484 0 0 1 .458-.349zm5.571 6.377H8.894a.484.484 0 0 1-.459-.345l-1.22-3.915-1.231 3.915a.484.484 0 0 1-.458.344h-3.89l3.138 2.437a.508.508 0 0 1 .169.551L3.747-.177 6.935-2.56a.469.469 0 0 1 .565 0l3.177 2.383L9.49-4.022a.508.508 0 0 1 .169-.549z" transform="translate(.29 13.385)" style="fill:#ea6500"/>
    <g data-name="マスクグループ 760" transform="translate(7.218 .5)" style="clip-path:url(#zwcgnwtj5a)">
        <path data-name="パス 8816" d="M7.5-12.885 5.745-7.506H.21l4.455 3.332-1.71 5.289L7.5-2.157l4.53 3.272-1.7-5.289 4.44-3.332H9.24z" transform="translate(-7.492 12.885)" style="fill:#fff"/>
        <path data-name="★ - アウトライン" d="M7.5-13.385a.5.5 0 0 1 .476.345L9.6-8.006h5.171a.5.5 0 0 1 .474.34.5.5 0 0 1-.173.556l-4.153 3.119L12.506.962a.5.5 0 0 1-.77.555L7.5-1.544 3.248 1.517A.5.5 0 0 1 2.479.96l1.6-4.951L-.09-7.11a.5.5 0 0 1-.174-.556.5.5 0 0 1 .474-.34h5.172l1.643-5.035a.5.5 0 0 1 .475-.344zm5.78 6.375H9.24a.5.5 0 0 1-.476-.345L7.5-11.269 6.221-7.354a.5.5 0 0 1-.476.344H1.709l3.256 2.436a.5.5 0 0 1 .176.551L3.9-.181l3.307-2.382a.5.5 0 0 1 .586 0l3.3 2.382-1.234-3.844a.5.5 0 0 1 .175-.549z" transform="translate(-7.492 12.887)" style="fill:#ea6500"/>
    </g>
</svg>
