<svg version="1.1" id="Layer_1" xmlns="http://www.w3.org/2000/svg" xmlns:xlink="http://www.w3.org/1999/xlink" x="0px" y="0px"
	 width="100%" viewBox="0 0 70 67" enable-background="new 0 0 70 67" xml:space="preserve">
<path fill="#707070" opacity="1.000000" stroke="none" 
	d="
M69.000000,68.000000 
	C47.312439,68.000000 25.624876,68.000000 3.468657,67.531342 
	C3.000000,45.496704 3.000000,23.930723 3.000000,2.340191 
	C25.312027,2.340191 47.002743,2.340191 69.000000,2.340191 
	C69.000000,24.452707 69.000000,46.226353 69.000000,68.000000 
M32.500000,5.000000 
	C23.750885,5.000000 15.001772,5.000000 6.403180,5.000000 
	C6.403180,25.088379 6.403180,44.455929 6.403180,63.729355 
	C26.056482,63.729355 45.305473,63.729355 64.685333,63.729355 
	C64.685333,44.091194 64.685333,24.725067 64.685333,5.000000 
	C54.082848,5.000000 43.791424,5.000000 32.500000,5.000000 
z"/>
<path fill="#FFFFFF" opacity="1.000000" stroke="none" 
	d="
M69.500000,68.000000 
	C69.000000,46.226353 69.000000,24.452707 69.000000,2.340191 
	C47.002743,2.340191 25.312027,2.340191 3.000000,2.340191 
	C3.000000,23.930723 3.000000,45.496704 3.000000,67.531342 
	C-0.068921,68.611977 1.036085,66.280998 1.033304,65.011971 
	C0.986672,43.730145 1.000000,22.448179 1.000000,1.083122 
	C24.221460,1.083122 47.443275,1.083122 71.000000,1.083122 
	C71.000000,23.166769 71.002190,45.335228 70.958679,67.503593 
	C70.958351,67.669693 70.333336,67.834557 69.500000,68.000000 
z"/>
<path fill="#FFFFFF" opacity="1.000000" stroke="none" 
	d="
M33.000000,5.000000 
	C43.791424,5.000000 54.082848,5.000000 64.685333,5.000000 
	C64.685333,24.725067 64.685333,44.091194 64.685333,63.729355 
	C45.305473,63.729355 26.056482,63.729355 6.403180,63.729355 
	C6.403180,44.455929 6.403180,25.088379 6.403180,5.000000 
	C15.001772,5.000000 23.750885,5.000000 33.000000,5.000000 
z"/>
</svg>