<svg xmlns="http://www.w3.org/2000/svg" width="54" height="49" viewBox="0 0 54 49">
  <g id="nav_symptom5" transform="translate(0 -5)">
    <path id="パス_11" data-name="パス 11" fill="currentColor" d="M2755.743,2743.461a8.23,8.23,0,1,0-8.23-8.23A8.24,8.24,0,0,0,2755.743,2743.461Zm0-13.888a5.657,5.657,0,1,1-5.657,5.657A5.664,5.664,0,0,1,2755.743,2729.573Z" transform="translate(-2740.981 -2722)"/>
    <path id="パス_12" data-name="パス 12" fill="currentColor" d="M2707.772,2984.119h0a8.365,8.365,0,0,0,.86-8.229,8.164,8.164,0,0,0-6.653-4.791h0l-17.844-1.706h-.024l-.026,0a17.159,17.159,0,0,0-17.649,12.178h0l-5.083,17.4c0,.011-.005.023-.008.034s-.007.023-.01.035-.007.035-.011.053v.007a4.938,4.938,0,0,0,3.395,5.791,4.78,4.78,0,0,0,1.373.2,4.866,4.866,0,0,0,4.564-3.239l0-.013c0-.009.007-.019.01-.028s0-.017.008-.025.01-.027.014-.042l5.237-18,4.631,20.349a1.274,1.274,0,0,0,1.235,1,1.258,1.258,0,0,0,.287-.033,1.287,1.287,0,0,0,.952-1.542l-4.915-21.6h0a2.211,2.211,0,0,0-2.064-1.746,2.271,2.271,0,0,0-2.207,1.634.039.039,0,0,0,0,0l-5.576,19.167a2.313,2.313,0,0,1-2.833,1.448,2.362,2.362,0,0,1-1.634-2.767l5.071-17.357h0a14.628,14.628,0,0,1,15.056-10.34l17.813,1.7h0a5.617,5.617,0,0,1,4.581,3.292,5.758,5.758,0,0,1-.609,5.662h0l-6.653,9.366a2.268,2.268,0,0,1-3.183.472,2.334,2.334,0,0,1-.582-3.2l6.384-8.956.015-.024c.016-.023.03-.046.045-.071l.022-.04c.012-.022.024-.045.034-.068l.021-.047c.009-.021.017-.042.025-.063s.013-.037.019-.056.011-.038.016-.057.011-.043.015-.065.006-.034.009-.052.008-.048.01-.072l0-.019c0-.011,0-.021,0-.032s0-.05,0-.076,0-.04,0-.059,0-.042,0-.063,0-.045-.007-.068-.005-.036-.009-.053-.009-.047-.014-.071-.008-.034-.013-.05-.013-.045-.021-.068-.012-.036-.02-.053-.016-.04-.024-.059-.018-.039-.028-.058-.017-.033-.026-.05-.024-.04-.036-.06l-.029-.043c-.014-.02-.028-.039-.043-.058l-.034-.041c-.015-.018-.03-.034-.045-.051l-.044-.044c-.014-.014-.029-.027-.043-.04l-.058-.047-.025-.02-.015-.01c-.021-.015-.043-.03-.066-.043l-.042-.026c-.021-.012-.043-.023-.064-.034l-.051-.024-.057-.023-.062-.023-.049-.014c-.025-.007-.05-.013-.075-.019l-.044-.008-.082-.012-.016,0-8.586-.819a1.286,1.286,0,0,0-.238,2.562l6.375.608-5.1,7.151-.007.011-.009.012a4.913,4.913,0,0,0,1.185,6.751l.04.028,2.159,9.526a1.274,1.274,0,0,0,1.236,1,1.261,1.261,0,0,0,.285-.033,1.287,1.287,0,0,0,.953-1.542l-1.823-8.043a4.791,4.791,0,0,0,3.813-1.905l.013-.017.021-.028.005-.008.012-.015Z" transform="translate(-2661.206 -2951.094)"/>
    <path id="パス_13" data-name="パス 13" fill="currentColor" d="M3247.762,3246.672a1.059,1.059,0,0,0-1.383-.577l-2.99,1.229-.1-.7s0-.006,0-.01a2.087,2.087,0,0,0-.972-1.543,2.153,2.153,0,0,0-1.879-.1h0l-3.037,1.262a1.06,1.06,0,1,0,.813,1.957l2.984-1.241.1.713,0,.012a2.087,2.087,0,0,0,2.052,1.8,2,2,0,0,0,.761-.151h0l3.071-1.262A1.059,1.059,0,0,0,3247.762,3246.672Z" transform="translate(-3193.843 -3205.675)"/>
    <path id="パス_14" data-name="パス 14" fill="currentColor" d="M3247.917,3338.492l-3.173-.529.287-.67,0,0a2.037,2.037,0,0,0-.014-1.794,2.109,2.109,0,0,0-1.536-1.062h0l-3.24-.545a1.06,1.06,0,0,0-.352,2.09l3.172.534-.285.665,0,.006a1.975,1.975,0,0,0,.048,1.759,2.039,2.039,0,0,0,1.47,1.1h0l3.276.546a1.06,1.06,0,0,0,.348-2.09Z" transform="translate(-3195.929 -3288.019)"/>
  </g>
</svg>
